<?xml version="1.0" encoding="UTF-8" standalone="no"?>
<svg
   width="405"
   height="240"
   viewBox="0 0 107.15624 63.500004"
   version="1.1"
   id="svg8"
   xml:space="preserve"
   xmlns:xlink="http://www.w3.org/1999/xlink"
   xmlns="http://www.w3.org/2000/svg"
   xmlns:svg="http://www.w3.org/2000/svg"
   xmlns:rdf="http://www.w3.org/1999/02/22-rdf-syntax-ns#"
   xmlns:cc="http://creativecommons.org/ns#"
   xmlns:dc="http://purl.org/dc/elements/1.1/"><defs
     id="defs2"><rect
       x="82.864021"
       y="118.64252"
       width="68.899292"
       height="48.396557"
       id="rect1272" /><marker
       style="overflow:visible"
       id="Arrow2Mstart"
       refX="0"
       refY="0"
       orient="auto"><path
         transform="scale(0.6)"
         d="M 8.7185878,4.0337352 -2.2072895,0.01601326 8.7185884,-4.0017078 c -1.7454984,2.3720609 -1.7354408,5.6174519 -6e-7,8.035443 z"
         style="fill-rule:evenodd;stroke-width:0.625;stroke-linejoin:round"
         id="path4034" /></marker><marker
       style="overflow:visible"
       id="Arrow2Mend"
       refX="0"
       refY="0"
       orient="auto"><path
         transform="scale(-0.6)"
         d="M 8.7185878,4.0337352 -2.2072895,0.01601326 8.7185884,-4.0017078 c -1.7454984,2.3720609 -1.7354408,5.6174519 -6e-7,8.035443 z"
         style="fill-rule:evenodd;stroke-width:0.625;stroke-linejoin:round"
         id="path4037" /></marker><marker
       style="overflow:visible"
       id="Arrow2Mendv"
       refX="0"
       refY="0"
       orient="auto"><path
         transform="scale(-0.6)"
         d="M 8.7185878,4.0337352 -2.2072895,0.01601326 8.7185884,-4.0017078 c -1.7454984,2.3720609 -1.7354408,5.6174519 -6e-7,8.035443 z"
         style="fill:#d1a600;fill-rule:evenodd;stroke:#d1a600;stroke-width:0.625;stroke-linejoin:round"
         id="path5447" /></marker><marker
       style="overflow:visible"
       id="marker5476"
       refX="0"
       refY="0"
       orient="auto"><path
         transform="scale(-0.6)"
         d="M 8.7185878,4.0337352 -2.2072895,0.01601326 8.7185884,-4.0017078 c -1.7454984,2.3720609 -1.7354408,5.6174519 -6e-7,8.035443 z"
         style="fill:#d1a600;fill-rule:evenodd;stroke:#d1a600;stroke-width:0.625;stroke-linejoin:round"
         id="path5474" /></marker><marker
       style="overflow:visible"
       id="marker5480"
       refX="0"
       refY="0"
       orient="auto"><path
         transform="scale(-0.6)"
         d="M 8.7185878,4.0337352 -2.2072895,0.01601326 8.7185884,-4.0017078 c -1.7454984,2.3720609 -1.7354408,5.6174519 -6e-7,8.035443 z"
         style="fill:#d1a600;fill-rule:evenodd;stroke:#d1a600;stroke-width:0.625;stroke-linejoin:round"
         id="path5478" /></marker><marker
       style="overflow:visible"
       id="marker5484"
       refX="0"
       refY="0"
       orient="auto"><path
         transform="scale(0.6)"
         d="M 8.7185878,4.0337352 -2.2072895,0.01601326 8.7185884,-4.0017078 c -1.7454984,2.3720609 -1.7354408,5.6174519 -6e-7,8.035443 z"
         style="fill-rule:evenodd;stroke-width:0.625;stroke-linejoin:round"
         id="path5482" /></marker><marker
       style="overflow:visible"
       id="marker5488"
       refX="0"
       refY="0"
       orient="auto"><path
         transform="scale(-0.6)"
         d="M 8.7185878,4.0337352 -2.2072895,0.01601326 8.7185884,-4.0017078 c -1.7454984,2.3720609 -1.7354408,5.6174519 -6e-7,8.035443 z"
         style="fill-rule:evenodd;stroke-width:0.625;stroke-linejoin:round"
         id="path5486" /></marker><marker
       style="overflow:visible"
       id="marker5492"
       refX="0"
       refY="0"
       orient="auto"><path
         transform="scale(0.6)"
         d="M 8.7185878,4.0337352 -2.2072895,0.01601326 8.7185884,-4.0017078 c -1.7454984,2.3720609 -1.7354408,5.6174519 -6e-7,8.035443 z"
         style="fill-rule:evenodd;stroke-width:0.625;stroke-linejoin:round"
         id="path5490" /></marker><marker
       style="overflow:visible"
       id="marker5496"
       refX="0"
       refY="0"
       orient="auto"><path
         transform="scale(-0.6)"
         d="M 8.7185878,4.0337352 -2.2072895,0.01601326 8.7185884,-4.0017078 c -1.7454984,2.3720609 -1.7354408,5.6174519 -6e-7,8.035443 z"
         style="fill-rule:evenodd;stroke-width:0.625;stroke-linejoin:round"
         id="path5494" /></marker><radialGradient
       xlink:href="#linearGradient1793"
       id="radialGradient2136"
       gradientUnits="userSpaceOnUse"
       gradientTransform="matrix(0.50178684,0.50096259,-0.38007737,0.38070299,282.94294,-213.45365)"
       cx="-131.18535"
       cy="67.299812"
       fx="-131.18535"
       fy="67.299812"
       r="73.306824" /><linearGradient
       id="linearGradient1793"><stop
         style="stop-color:#467f03;stop-opacity:1"
         offset="0"
         id="stop1789" /><stop
         style="stop-color:#c0ff72;stop-opacity:1"
         offset="1"
         id="stop1791" /></linearGradient><filter
       style="color-interpolation-filters:sRGB"
       id="filter1701"
       x="-0.048751851"
       width="1.0975037"
       y="-0.11937424"
       height="1.2387485"><feGaussianBlur
         stdDeviation="1.3192596"
         id="feGaussianBlur1703" /></filter><rect
       x="82.864021"
       y="118.64252"
       width="66.817123"
       height="50.263897"
       id="rect1317" /><rect
       x="82.864021"
       y="118.64252"
       width="66.817123"
       height="50.263897"
       id="rect1078" /><linearGradient
       id="linearGradient2795"><stop
         style="stop-color:#b8b8b8;stop-opacity:0.49803922;"
         offset="0"
         id="stop2797" /><stop
         style="stop-color:#7f7f7f;stop-opacity:0;"
         offset="1"
         id="stop2799" /></linearGradient><linearGradient
       id="linearGradient2787"><stop
         style="stop-color:#7f7f7f;stop-opacity:0.5;"
         offset="0"
         id="stop2789" /><stop
         style="stop-color:#7f7f7f;stop-opacity:0;"
         offset="1"
         id="stop2791" /></linearGradient><linearGradient
       id="linearGradient3676"><stop
         style="stop-color:#b2b2b2;stop-opacity:0.5;"
         offset="0"
         id="stop3678" /><stop
         style="stop-color:#b3b3b3;stop-opacity:0;"
         offset="1"
         id="stop3680" /></linearGradient><linearGradient
       id="linearGradient3236"><stop
         style="stop-color:#f4f4f4;stop-opacity:1"
         offset="0"
         id="stop3244" /><stop
         style="stop-color:white;stop-opacity:1"
         offset="1"
         id="stop3240" /></linearGradient><linearGradient
       id="linearGradient4671"><stop
         style="stop-color:#ffd43b;stop-opacity:1;"
         offset="0"
         id="stop4673" /><stop
         style="stop-color:#ffe873;stop-opacity:1"
         offset="1"
         id="stop4675" /></linearGradient><linearGradient
       id="linearGradient4689"><stop
         style="stop-color:#5a9fd4;stop-opacity:1;"
         offset="0"
         id="stop4691" /><stop
         style="stop-color:#306998;stop-opacity:1;"
         offset="1"
         id="stop4693" /></linearGradient><linearGradient
       x1="224.23996"
       y1="144.75717"
       x2="-65.308502"
       y2="144.75717"
       id="linearGradient2987"
       xlink:href="#linearGradient4671"
       gradientUnits="userSpaceOnUse"
       gradientTransform="translate(100.2702,99.61116)" /><linearGradient
       x1="172.94208"
       y1="77.475983"
       x2="26.670298"
       y2="76.313133"
       id="linearGradient2990"
       xlink:href="#linearGradient4689"
       gradientUnits="userSpaceOnUse"
       gradientTransform="translate(100.2702,99.61116)" /><linearGradient
       xlink:href="#linearGradient4671"
       id="linearGradient2255"
       gradientUnits="userSpaceOnUse"
       gradientTransform="matrix(0.562541,0,0,0.567972,-11.5974,-7.60954)"
       x1="224.23996"
       y1="144.75717"
       x2="-65.308502"
       y2="144.75717" /><linearGradient
       xlink:href="#linearGradient4689"
       id="linearGradient2258"
       gradientUnits="userSpaceOnUse"
       gradientTransform="matrix(0.562541,0,0,0.567972,-11.5974,-7.60954)"
       x1="172.94208"
       y1="76.176224"
       x2="26.670298"
       y2="76.313133" /><radialGradient
       xlink:href="#linearGradient2795"
       id="radialGradient2801"
       cx="61.518883"
       cy="132.28575"
       fx="61.518883"
       fy="132.28575"
       r="29.036913"
       gradientTransform="matrix(1,0,0,0.177966,0,108.7434)"
       gradientUnits="userSpaceOnUse" /></defs><metadata
     id="metadata5"><rdf:RDF><cc:Work
         rdf:about=""><dc:format>image/svg+xml</dc:format><dc:type
           rdf:resource="http://purl.org/dc/dcmitype/StillImage" /></cc:Work></rdf:RDF></metadata><g
     id="layer1"
     transform="translate(-138.91971,262.96961)"><g
       id="g2"
       transform="translate(0.75109113,0.27718434)"><text
         xml:space="preserve"
         style="font-style:normal;font-weight:normal;font-size:4.22287px;line-height:125%;font-family:sans-serif;letter-spacing:0px;word-spacing:0px;fill:#000000;fill-opacity:1;stroke:none;stroke-width:0.476526px;stroke-linecap:butt;stroke-linejoin:miter;stroke-opacity:1"
         x="114.93089"
         y="124.48682"
         id="text4519"><tspan
           x="114.93089"
           y="124.48682"
           style="font-style:normal;font-variant:normal;font-weight:normal;font-stretch:normal;font-family:'DejaVu Sans';-inkscape-font-specification:'DejaVu Sans';text-align:center;letter-spacing:-0.00234604px;word-spacing:-0.001173px;text-anchor:middle;fill:#000000;fill-opacity:1;stroke-width:0.476526px"
           id="tspan1228" /></text><flowRoot
         transform="matrix(0.26458333,0,0,0.26458333,-20.913945,-38.58916)"
         xml:space="preserve"
         id="flowRoot5367"
         style="font-style:normal;font-weight:normal;font-size:40px;line-height:25px;font-family:sans-serif;letter-spacing:0px;word-spacing:0px;fill:#000000;fill-opacity:1;stroke:none;stroke-width:1px;stroke-linecap:butt;stroke-linejoin:miter;stroke-opacity:1"><flowRegion
           id="flowRegion5369"><rect
             id="rect5371"
             width="1177.3328"
             height="751.0484"
             x="-50.002552"
             y="-77.725494" /></flowRegion><flowPara
           id="flowPara5373" /></flowRoot><g
         id="text1360"
         style="font-size:12.5064px;line-height:1.25;font-family:Montserrat;-inkscape-font-specification:Montserrat;fill:#3c2d1e;stroke-width:0.312663"
         aria-label="&#10;OpenDSSDirect.py"><path
           style="font-family:Quicksand;-inkscape-font-specification:'Quicksand Medium'"
           d="m 147.34902,-206.9025 q 0,0.96299 -0.31266,1.78841 -0.31266,0.81292 -0.87545,1.42573 -0.56279,0.61282 -1.33818,0.95049 -0.7754,0.33767 -1.68837,0.33767 -0.92547,0 -1.70087,-0.33767 -0.76289,-0.33767 -1.32568,-0.95049 -0.56278,-0.61281 -0.87544,-1.42573 -0.31266,-0.82542 -0.31266,-1.78841 0,-0.9755 0.31266,-1.78842 0.31266,-0.82542 0.87544,-1.42573 0.56279,-0.61281 1.32568,-0.95048 0.7754,-0.33768 1.70087,-0.33768 0.91297,0 1.68837,0.33768 0.77539,0.33767 1.33818,0.95048 0.56279,0.60031 0.87545,1.42573 0.31266,0.81292 0.31266,1.78842 z m -1.07555,0 q 0,-1.02553 -0.41271,-1.81343 -0.40021,-0.7879 -1.10056,-1.23813 -0.70036,-0.45024 -1.62584,-0.45024 -0.92547,0 -1.63834,0.45024 -0.70035,0.45023 -1.10056,1.23813 -0.4002,0.7879 -0.4002,1.81343 0,1.01302 0.4002,1.81342 0.40021,0.78791 1.10056,1.23814 0.71287,0.45023 1.63834,0.45023 0.92548,0 1.62584,-0.45023 0.70035,-0.45023 1.10056,-1.23814 0.41271,-0.8004 0.41271,-1.81342 z"
           id="path1" /><path
           style="font-weight:500;font-family:Quicksand;-inkscape-font-specification:'Quicksand Medium'"
           d="m 152.02641,-209.09112 q 0.85044,0 1.52578,0.42521 0.67535,0.42522 1.06305,1.17561 0.4002,0.75038 0.4002,1.72588 0,0.96299 -0.4002,1.72588 -0.3877,0.75039 -1.06305,1.18811 -0.66284,0.42522 -1.50076,0.42522 -0.46274,0 -0.87545,-0.13757 -0.40021,-0.15008 -0.73788,-0.37519 -0.32517,-0.23763 -0.55028,-0.52527 -0.22512,-0.30016 -0.32517,-0.5878 l 0.27514,-0.17509 v 3.68938 q 0,0.21261 -0.13757,0.36269 -0.13757,0.15008 -0.36268,0.15008 -0.21261,0 -0.36269,-0.15008 -0.13757,-0.13757 -0.13757,-0.36269 v -7.99159 q 0,-0.2126 0.13757,-0.35017 0.15008,-0.15008 0.36269,-0.15008 0.22511,0 0.36268,0.15008 0.13757,0.13757 0.13757,0.35017 v 1.11307 l -0.18759,-0.10005 q 0.0875,-0.31266 0.30015,-0.6003 0.22512,-0.28765 0.53778,-0.50026 0.32516,-0.22512 0.71286,-0.35018 0.40021,-0.12506 0.82542,-0.12506 z m -0.11255,0.92547 q -0.62532,0 -1.11307,0.31266 -0.47525,0.31266 -0.75039,0.85044 -0.26263,0.53777 -0.26263,1.23813 0,0.68785 0.26263,1.23813 0.27514,0.55028 0.75039,0.86294 0.48775,0.31266 1.11307,0.31266 0.62532,0 1.10056,-0.31266 0.47524,-0.31266 0.75038,-0.86294 0.27514,-0.55028 0.27514,-1.23813 0,-0.70036 -0.27514,-1.23813 -0.27514,-0.53778 -0.75038,-0.85044 -0.47524,-0.31266 -1.10056,-0.31266 z m 7.59138,5.76545 q -1.00051,0 -1.75089,-0.42522 -0.75039,-0.42521 -1.1756,-1.16309 -0.41272,-0.75039 -0.41272,-1.72589 0,-1.08805 0.42522,-1.85094 0.43773,-0.7754 1.12558,-1.1756 0.70036,-0.41272 1.47575,-0.41272 0.5753,0 1.11307,0.21261 0.53778,0.21261 0.95049,0.62532 0.41271,0.40021 0.66284,0.9755 0.25013,0.56279 0.26263,1.26315 0,0.2001 -0.15007,0.33767 -0.15008,0.13757 -0.35018,0.13757 h -4.94003 l -0.22512,-0.86294 h 4.81497 l -0.2001,0.17509 v -0.27514 q -0.05,-0.51276 -0.35018,-0.87545 -0.28765,-0.37519 -0.71287,-0.57529 -0.41271,-0.20011 -0.87545,-0.20011 -0.37519,0 -0.75038,0.13758 -0.36269,0.12506 -0.66284,0.42521 -0.28765,0.28765 -0.47524,0.75039 -0.17509,0.46273 -0.17509,1.11307 0,0.72537 0.28764,1.27565 0.30016,0.55028 0.82543,0.87545 0.52527,0.31266 1.22562,0.31266 0.43773,0 0.76289,-0.11256 0.32517,-0.11256 0.56279,-0.27514 0.23762,-0.17509 0.40021,-0.35018 0.16258,-0.11256 0.31266,-0.11256 0.18759,0 0.30015,0.12507 0.12507,0.12506 0.12507,0.30015 0,0.21261 -0.20011,0.37519 -0.35018,0.3877 -0.95048,0.68785 -0.60031,0.28765 -1.27566,0.28765 z m 7.39129,-6.75346 q 0.85043,0 1.33818,0.35018 0.48775,0.35018 0.68785,0.93798 0.21261,0.5878 0.21261,1.31318 v 3.51429 q 0,0.21261 -0.15007,0.36269 -0.13757,0.15008 -0.35018,0.15008 -0.21261,0 -0.36269,-0.15008 -0.13757,-0.15008 -0.13757,-0.36269 v -3.48928 q 0,-0.47524 -0.15008,-0.85044 -0.13757,-0.38769 -0.47524,-0.61281 -0.32517,-0.23762 -0.90046,-0.23762 -0.52527,0 -0.96299,0.23762 -0.43773,0.22512 -0.70036,0.61281 -0.26264,0.3752 -0.26264,0.85044 v 3.48928 q 0,0.21261 -0.15007,0.36269 -0.13757,0.15008 -0.35018,0.15008 -0.21261,0 -0.36269,-0.15008 -0.13757,-0.15008 -0.13757,-0.36269 v -5.45279 q 0,-0.2126 0.13757,-0.35018 0.15008,-0.15007 0.36269,-0.15007 0.22511,0 0.36268,0.15007 0.13757,0.13758 0.13757,0.35018 v 0.88796 l -0.25012,0.27514 q 0.0625,-0.32517 0.28764,-0.65033 0.22512,-0.33768 0.56279,-0.60031 0.33767,-0.26264 0.75039,-0.41271 0.41271,-0.16259 0.86294,-0.16259 z m 7.89153,-2.12608 q 0.91297,0 1.60082,0.35018 0.70036,0.33767 1.16309,0.95048 0.46274,0.61282 0.68786,1.41323 0.23762,0.7879 0.23762,1.66335 0,1.20061 -0.41271,2.20112 -0.41271,0.98801 -1.22563,1.58832 -0.81292,0.5878 -2.05105,0.5878 h -3.1266 q -0.21261,0 -0.36269,-0.15008 -0.13757,-0.15008 -0.13757,-0.36269 v -7.74146 q 0,-0.21261 0.13757,-0.35018 0.15008,-0.15007 0.36269,-0.15007 z m -0.12506,7.77898 q 0.96299,0 1.5633,-0.46274 0.61281,-0.46274 0.88795,-1.23813 0.28765,-0.7754 0.28765,-1.70087 0,-0.67535 -0.16259,-1.28816 -0.15007,-0.62532 -0.48775,-1.10057 -0.32516,-0.47524 -0.85043,-0.75038 -0.51276,-0.27514 -1.23813,-0.27514 h -2.56382 l 0.10005,-0.10005 v 7.0411 l -0.075,-0.12506 z m 8.02911,1.10056 q -0.92547,0 -1.62583,-0.27514 -0.70036,-0.27514 -1.35069,-0.87545 -0.0875,-0.0875 -0.15008,-0.18759 -0.05,-0.11256 -0.05,-0.23763 0,-0.2001 0.13757,-0.35017 0.15008,-0.16259 0.36269,-0.16259 0.17509,0 0.31266,0.13757 0.48775,0.47525 1.05054,0.72537 0.57529,0.25013 1.28816,0.25013 0.55028,0 0.988,-0.17509 0.45023,-0.17509 0.71287,-0.48775 0.26263,-0.31266 0.26263,-0.72537 -0.0125,-0.50025 -0.30015,-0.82542 -0.27514,-0.32517 -0.7754,-0.53778 -0.48775,-0.22511 -1.13808,-0.37519 -0.5753,-0.13757 -1.06304,-0.33767 -0.47525,-0.2001 -0.82543,-0.48775 -0.35018,-0.30015 -0.55028,-0.71287 -0.18759,-0.42521 -0.18759,-0.988 0,-0.71287 0.37519,-1.25064 0.37519,-0.53778 1.03803,-0.82542 0.66284,-0.30016 1.52578,-0.30016 0.76289,0 1.43824,0.25013 0.68785,0.25013 1.10056,0.68785 0.25013,0.23762 0.25013,0.46274 0,0.1876 -0.16259,0.35018 -0.15007,0.15008 -0.35018,0.15008 -0.13757,0 -0.25012,-0.10006 -0.21261,-0.23762 -0.53778,-0.42521 -0.32517,-0.1876 -0.71286,-0.30016 -0.3877,-0.11255 -0.7754,-0.11255 -0.5753,0 -1.01302,0.17509 -0.43772,0.16258 -0.68785,0.47524 -0.23762,0.30015 -0.23762,0.72537 0,0.47524 0.27514,0.7879 0.27514,0.30016 0.73788,0.50026 0.46273,0.18759 1.02552,0.33767 0.61281,0.15008 1.12558,0.35018 0.52527,0.1876 0.90046,0.47524 0.37519,0.28765 0.57529,0.73788 0.21261,0.43773 0.21261,1.08806 0,0.68785 -0.3877,1.22563 -0.3877,0.53777 -1.06304,0.85043 -0.66284,0.30015 -1.50077,0.31266 z m 7.17867,0 q -0.92548,0 -1.62584,-0.27514 -0.70036,-0.27514 -1.35069,-0.87545 -0.0875,-0.0875 -0.15007,-0.18759 -0.05,-0.11256 -0.05,-0.23763 0,-0.2001 0.13757,-0.35017 0.15008,-0.16259 0.36269,-0.16259 0.17509,0 0.31266,0.13757 0.48775,0.47525 1.05053,0.72537 0.5753,0.25013 1.28816,0.25013 0.55028,0 0.98801,-0.17509 0.45023,-0.17509 0.71286,-0.48775 0.26264,-0.31266 0.26264,-0.72537 -0.0125,-0.50025 -0.30016,-0.82542 -0.27514,-0.32517 -0.77539,-0.53778 -0.48775,-0.22511 -1.13809,-0.37519 -0.57529,-0.13757 -1.06304,-0.33767 -0.47524,-0.2001 -0.82542,-0.48775 -0.35018,-0.30015 -0.55028,-0.71287 -0.1876,-0.42521 -0.1876,-0.988 0,-0.71287 0.37519,-1.25064 0.37519,-0.53778 1.03803,-0.82542 0.66284,-0.30016 1.52578,-0.30016 0.76289,0 1.43824,0.25013 0.68785,0.25013 1.10056,0.68785 0.25013,0.23762 0.25013,0.46274 0,0.1876 -0.16258,0.35018 -0.15008,0.15008 -0.35018,0.15008 -0.13757,0 -0.25013,-0.10006 -0.21261,-0.23762 -0.53777,-0.42521 -0.32517,-0.1876 -0.71287,-0.30016 -0.3877,-0.11255 -0.7754,-0.11255 -0.57529,0 -1.01301,0.17509 -0.43773,0.16258 -0.68786,0.47524 -0.23762,0.30015 -0.23762,0.72537 0,0.47524 0.27514,0.7879 0.27514,0.30016 0.73788,0.50026 0.46274,0.18759 1.02553,0.33767 0.61281,0.15008 1.12557,0.35018 0.52527,0.1876 0.90046,0.47524 0.37519,0.28765 0.5753,0.73788 0.21261,0.43773 0.21261,1.08806 0,0.68785 -0.3877,1.22563 -0.3877,0.53777 -1.06305,0.85043 -0.66284,0.30015 -1.50076,0.31266 z m 8.25421,-8.87954 q 0.91297,0 1.60082,0.35018 0.70036,0.33767 1.1631,0.95048 0.46274,0.61282 0.68785,1.41323 0.23762,0.7879 0.23762,1.66335 0,1.20061 -0.41271,2.20112 -0.41271,0.98801 -1.22563,1.58832 -0.81291,0.5878 -2.05105,0.5878 h -3.1266 q -0.2126,0 -0.36268,-0.15008 -0.13757,-0.15008 -0.13757,-0.36269 v -7.74146 q 0,-0.21261 0.13757,-0.35018 0.15008,-0.15007 0.36268,-0.15007 z m -0.12506,7.77898 q 0.96299,0 1.5633,-0.46274 0.61281,-0.46274 0.88796,-1.23813 0.28764,-0.7754 0.28764,-1.70087 0,-0.67535 -0.16258,-1.28816 -0.15008,-0.62532 -0.48775,-1.10057 -0.32517,-0.47524 -0.85044,-0.75038 -0.51276,-0.27514 -1.23813,-0.27514 h -2.56381 l 0.10005,-0.10005 v 7.0411 l -0.075,-0.12506 z m 6.26571,0.46273 q 0,0.21261 -0.15008,0.36269 -0.13757,0.15008 -0.35018,0.15008 -0.22511,0 -0.36268,-0.15008 -0.13757,-0.15008 -0.13757,-0.36269 v -5.55284 q 0,-0.21261 0.13757,-0.35018 0.15008,-0.15007 0.36268,-0.15007 0.21261,0 0.35018,0.15007 0.15008,0.13757 0.15008,0.35018 z m -0.50026,-6.89102 q -0.31266,0 -0.46273,-0.12507 -0.15008,-0.12506 -0.15008,-0.38769 v -0.17509 q 0,-0.26264 0.16258,-0.3877 0.16259,-0.12507 0.46274,-0.12507 0.30015,0 0.45023,0.12507 0.15008,0.12506 0.15008,0.3877 v 0.17509 q 0,0.26263 -0.16258,0.38769 -0.15008,0.12507 -0.45024,0.12507 z m 2.80145,7.40379 q -0.21261,0 -0.36269,-0.15008 -0.13757,-0.15008 -0.13757,-0.36269 v -5.45279 q 0,-0.2126 0.13757,-0.35018 0.15008,-0.15007 0.36269,-0.15007 0.22511,0 0.36268,0.15007 0.13757,0.13758 0.13757,0.35018 v 1.65085 l -0.15007,-0.26264 q 0.075,-0.38769 0.26263,-0.75038 0.2001,-0.37519 0.50026,-0.66284 0.30015,-0.30015 0.68785,-0.46274 0.3877,-0.17509 0.85043,-0.17509 0.27515,0 0.50026,0.13758 0.23762,0.12506 0.23762,0.36268 0,0.26264 -0.13757,0.3877 -0.13757,0.12506 -0.31266,0.12506 -0.16258,0 -0.31266,-0.0625 -0.15008,-0.075 -0.37519,-0.075 -0.31266,0 -0.62532,0.17509 -0.30015,0.16259 -0.56279,0.47525 -0.25013,0.31266 -0.41271,0.71286 -0.15008,0.3877 -0.15008,0.83793 v 3.03905 q 0,0.21261 -0.15007,0.36269 -0.13757,0.15008 -0.35018,0.15008 z m 7.22869,0.12506 q -1.00051,0 -1.75089,-0.42522 -0.75039,-0.42521 -1.1756,-1.16309 -0.41272,-0.75039 -0.41272,-1.72589 0,-1.08805 0.42522,-1.85094 0.43773,-0.7754 1.12558,-1.1756 0.70036,-0.41272 1.47575,-0.41272 0.5753,0 1.11307,0.21261 0.53778,0.21261 0.95049,0.62532 0.41271,0.40021 0.66284,0.9755 0.25013,0.56279 0.26263,1.26315 0,0.2001 -0.15007,0.33767 -0.15008,0.13757 -0.35018,0.13757 h -4.94003 l -0.22512,-0.86294 h 4.81497 l -0.20011,0.17509 v -0.27514 q -0.05,-0.51276 -0.35017,-0.87545 -0.28765,-0.37519 -0.71287,-0.57529 -0.41271,-0.20011 -0.87545,-0.20011 -0.37519,0 -0.75038,0.13758 -0.36269,0.12506 -0.66284,0.42521 -0.28765,0.28765 -0.47524,0.75039 -0.17509,0.46273 -0.17509,1.11307 0,0.72537 0.28764,1.27565 0.30016,0.55028 0.82543,0.87545 0.52527,0.31266 1.22562,0.31266 0.43773,0 0.76289,-0.11256 0.32517,-0.11256 0.56279,-0.27514 0.23762,-0.17509 0.40021,-0.35018 0.16258,-0.11256 0.31266,-0.11256 0.18759,0 0.30015,0.12507 0.12506,0.12506 0.12506,0.30015 0,0.21261 -0.2001,0.37519 -0.35018,0.3877 -0.95048,0.68785 -0.60031,0.28765 -1.27566,0.28765 z m 7.05361,-6.75346 q 0.63783,0 1.15059,0.13758 0.51276,0.13757 0.81292,0.37519 0.30015,0.23762 0.30015,0.53777 0,0.16259 -0.11256,0.31266 -0.11255,0.15008 -0.30015,0.15008 -0.17509,0 -0.28765,-0.0625 -0.10005,-0.0625 -0.2001,-0.16259 -0.0875,-0.10005 -0.25013,-0.17509 -0.15007,-0.0875 -0.43772,-0.13757 -0.28765,-0.05 -0.5753,-0.05 -0.68785,0 -1.21312,0.32516 -0.51276,0.32517 -0.81291,0.87545 -0.30016,0.55028 -0.30016,1.25064 0,0.70036 0.28765,1.25064 0.28765,0.55028 0.80041,0.87545 0.51276,0.32517 1.18811,0.32517 0.43772,0 0.70036,-0.075 0.26263,-0.075 0.43772,-0.17509 0.22512,-0.12506 0.33767,-0.25013 0.12507,-0.12506 0.32517,-0.12506 0.21261,0 0.32517,0.13757 0.12506,0.13757 0.12506,0.33767 0,0.22512 -0.31266,0.47524 -0.31266,0.25013 -0.85043,0.42522 -0.52527,0.17509 -1.20062,0.17509 -0.95048,0 -1.66335,-0.43772 -0.71286,-0.45023 -1.11307,-1.21312 -0.3877,-0.7754 -0.3877,-1.72589 0,-0.95048 0.40021,-1.71337 0.41271,-0.76289 1.13808,-1.21312 0.72537,-0.45024 1.68836,-0.45024 z m 3.36421,0.20011 h 2.939 q 0.20011,0 0.32517,0.13757 0.13757,0.13757 0.13757,0.32516 0,0.20011 -0.13757,0.33768 -0.12506,0.12506 -0.32517,0.12506 h -2.939 q -0.1876,0 -0.32517,-0.13757 -0.13757,-0.13757 -0.13757,-0.33767 0,-0.1876 0.13757,-0.31266 0.13757,-0.13757 0.32517,-0.13757 z m 1.31317,-1.70087 q 0.21261,0 0.35018,0.15007 0.13757,0.13757 0.13757,0.35018 v 6.04059 q 0,0.30016 0.0875,0.45023 0.0875,0.15008 0.22511,0.21261 0.15008,0.05 0.28765,0.05 0.12506,0 0.21261,-0.0375 0.10005,-0.05 0.22511,-0.05 0.12507,0 0.22512,0.12507 0.11256,0.11256 0.11256,0.30015 0,0.22512 -0.26264,0.3877 -0.26263,0.15008 -0.5878,0.15008 -0.17509,0 -0.43772,-0.025 -0.25013,-0.025 -0.50026,-0.16258 -0.25013,-0.13757 -0.42522,-0.45023 -0.16258,-0.32517 -0.16258,-0.90046 v -6.09062 q 0,-0.21261 0.15008,-0.35018 0.15007,-0.15007 0.36268,-0.15007 z m 3.77694,8.11665 q -0.26263,0 -0.41271,-0.15008 -0.13757,-0.15007 -0.13757,-0.41271 v -0.25013 q 0,-0.27514 0.13757,-0.42521 0.15008,-0.15008 0.41271,-0.15008 h 0.10006 q 0.27514,0 0.41271,0.15008 0.13757,0.15007 0.13757,0.42521 v 0.25013 q 0,0.26264 -0.13757,0.41271 -0.13757,0.15008 -0.41271,0.15008 z m 5.4403,-6.55335 q 0.85043,0 1.52578,0.42521 0.67534,0.42522 1.06304,1.17561 0.40021,0.75038 0.40021,1.72588 0,0.96299 -0.40021,1.72588 -0.3877,0.75039 -1.06304,1.18811 -0.66284,0.42522 -1.50077,0.42522 -0.46274,0 -0.87545,-0.13757 -0.4002,-0.15008 -0.73787,-0.37519 -0.32517,-0.23763 -0.55029,-0.52527 -0.22511,-0.30016 -0.32516,-0.5878 l 0.27514,-0.17509 v 3.68938 q 0,0.21261 -0.13757,0.36269 -0.13757,0.15008 -0.36269,0.15008 -0.21261,0 -0.36268,-0.15008 -0.13757,-0.13757 -0.13757,-0.36269 v -7.99159 q 0,-0.2126 0.13757,-0.35017 0.15007,-0.15008 0.36268,-0.15008 0.22512,0 0.36269,0.15008 0.13757,0.13757 0.13757,0.35017 v 1.11307 l -0.1876,-0.10005 q 0.0876,-0.31266 0.30016,-0.6003 0.22511,-0.28765 0.53777,-0.50026 0.32517,-0.22512 0.71287,-0.35018 0.4002,-0.12506 0.82542,-0.12506 z m -0.11256,0.92547 q -0.62532,0 -1.11307,0.31266 -0.47524,0.31266 -0.75038,0.85044 -0.26264,0.53777 -0.26264,1.23813 0,0.68785 0.26264,1.23813 0.27514,0.55028 0.75038,0.86294 0.48775,0.31266 1.11307,0.31266 0.62532,0 1.10056,-0.31266 0.47525,-0.31266 0.75039,-0.86294 0.27514,-0.55028 0.27514,-1.23813 0,-0.70036 -0.27514,-1.23813 -0.27514,-0.53778 -0.75039,-0.85044 -0.47524,-0.31266 -1.10056,-0.31266 z m 9.44234,-0.92547 q 0.2126,0 0.35017,0.15007 0.15008,0.13757 0.15008,0.35018 v 5.45279 q 0,1.05054 -0.41271,1.73839 -0.41271,0.70036 -1.11307,1.03803 -0.68785,0.33768 -1.5633,0.33768 -0.48775,0 -0.93798,-0.10005 -0.45023,-0.10006 -0.73788,-0.26264 -0.23762,-0.11256 -0.33767,-0.28765 -0.0875,-0.16258 -0.025,-0.35017 0.0875,-0.22512 0.25013,-0.31267 0.17508,-0.0875 0.36268,0 0.2001,0.0876 0.5753,0.23763 0.38769,0.16258 0.86294,0.16258 0.65033,0 1.11307,-0.25013 0.46273,-0.25013 0.71286,-0.73788 0.25013,-0.47524 0.25013,-1.1881 v -0.88796 l 0.15008,0.31266 q -0.20011,0.3877 -0.53778,0.67535 -0.33767,0.28764 -0.7754,0.45023 -0.43772,0.16258 -0.96299,0.16258 -0.71286,0 -1.21312,-0.30015 -0.48775,-0.31266 -0.75038,-0.85044 -0.25013,-0.55028 -0.25013,-1.26314 v -3.77694 q 0,-0.21261 0.13757,-0.35018 0.15008,-0.15007 0.36268,-0.15007 0.22512,0 0.36269,0.15007 0.13757,0.13757 0.13757,0.35018 v 3.55182 q 0,0.85044 0.37519,1.28816 0.37519,0.42522 1.1631,0.42522 0.50025,0 0.90046,-0.22512 0.41271,-0.22511 0.65033,-0.61281 0.25013,-0.40021 0.25013,-0.87545 v -3.55182 q 0,-0.21261 0.13757,-0.35018 0.13757,-0.15007 0.36269,-0.15007 z"
           id="path2" /></g><g
         id="g1"
         transform="matrix(0.6231184,0,0,0.6231184,73.729836,-80.976988)"><path
           id="path2146"
           style="fill:url(#radialGradient2136);fill-opacity:1;stroke:#e4ffc4;stroke-width:0.948888;stroke-miterlimit:4;stroke-dasharray:none;stroke-opacity:1"
           d="m 165.65996,-291.56925 -10.90765,1.2939 -0.95018,11.25071 25.53305,25.48496 -25.81619,25.86523 1.29357,10.90731 11.25105,0.95051 25.48464,-25.53303 25.86524,25.81617 10.90764,-1.29391 0.95018,-11.2507 -25.53304,-25.48496 25.81619,-25.86523 -1.29359,-10.90731 -11.25069,-0.95051 -25.48497,25.53336 z" /><circle
           style="fill:#b1ff53;fill-opacity:1;stroke-width:0.131303"
           id="circle2148"
           cx="191.53673"
           cy="-253.55138"
           r="23.958096" /><path
           style="font-weight:600;font-size:36.8382px;line-height:1.25;font-family:Quicksand;-inkscape-font-specification:'Quicksand Semi-Bold';fill:#ffffff;stroke-width:0.920964;filter:url(#filter1701)"
           d="m -16.89058,54.627689 q 2.689189,0 4.752128,1.03147 2.062939,0.994631 3.4259523,2.799703 1.3998516,1.768233 2.0997774,4.125878 0.6999258,2.320807 0.6999258,4.936319 0,3.573305 -1.2524988,6.520361 -1.2524988,2.910218 -3.6838197,4.641613 -2.431321,1.731396 -6.041465,1.731396 h -8.988521 q -0.773602,0 -1.326175,-0.515735 -0.552573,-0.552573 -0.552573,-1.363013 V 56.506437 q 0,-0.81044 0.552573,-1.326175 0.552573,-0.552573 1.326175,-0.552573 z m -0.368382,22.250273 q 2.615512,0 4.236393,-1.289337 1.620881,-1.289337 2.357645,-3.389115 0.7736019,-2.136615 0.7736019,-4.678451 0,-1.878748 -0.4420589,-3.536467 -0.40522,-1.694557 -1.326175,-2.983894 -0.884116,-1.326176 -2.283968,-2.06294 -1.363013,-0.773602 -3.315438,-0.773602 h -6.96242 l 0.331544,-0.331544 v 19.413732 l -0.221029,-0.368382 z m 23.7974628,3.904849 q -2.6523504,0 -4.7152896,-0.736764 -2.06293915,-0.736764 -3.9416873,-2.431321 -0.4052202,-0.294706 -0.6262494,-0.699926 -0.184191,-0.442059 -0.184191,-0.884117 0,-0.699926 0.5157348,-1.252499 0.5157348,-0.552573 1.289337,-0.552573 0.58941115,0 1.10514595,0.40522 1.39985155,1.289337 2.91021775,1.952425 1.5472044,0.663088 3.6101436,0.663088 1.473528,0 2.6891886,-0.478897 1.2524988,-0.478897 1.9892628,-1.289337 0.736764,-0.81044 0.736764,-1.878748 0,-1.326175 -0.773602,-2.173454 Q 10.406512,70.541791 8.969822,69.989218 7.5699704,69.399807 5.5807076,68.994587 3.7387976,68.663043 2.2652696,68.073632 0.82857984,67.484221 -0.20288975,66.600104 -1.2343593,65.679149 -1.7869323,64.42665 q -0.552573,-1.252499 -0.552573,-2.910218 0,-2.24713 1.1788224,-3.868011 1.17882235,-1.62088 3.2049233,-2.504997 2.026101,-0.884117 4.5679368,-0.884117 2.3208066,0 4.3469078,0.736764 2.026101,0.699926 3.278599,1.915586 0.884117,0.773603 0.884117,1.657719 0,0.663088 -0.552573,1.252499 -0.515735,0.552573 -1.21566,0.552573 -0.515735,0 -0.884117,-0.294705 -0.589411,-0.62625 -1.584043,-1.105146 -0.9946311,-0.515735 -2.1366152,-0.847279 -1.105146,-0.331544 -2.1366156,-0.331544 -1.657719,0 -2.8365414,0.478897 -1.1788224,0.442058 -1.8050718,1.252499 -0.6262494,0.773602 -0.6262494,1.84191 0,1.252498 0.6999258,2.062939 0.736764,0.81044 2.026101,1.326175 1.289337,0.478896 2.947056,0.884117 2.026101,0.442058 3.6101436,0.994631 1.620881,0.552573 2.726027,1.43669 1.105146,0.847278 1.694557,2.136615 0.589411,1.289337 0.589411,3.204924 0,2.210292 -1.252499,3.868011 -1.252498,1.657719 -3.315438,2.578674 -2.0261006,0.920955 -4.5310982,0.920955 z m 21.5503162,0 q -2.652351,0 -4.71529,-0.736764 -2.062939,-0.736764 -3.941687,-2.431321 -0.40522,-0.294706 -0.62625,-0.699926 -0.184191,-0.442059 -0.184191,-0.884117 0,-0.699926 0.515735,-1.252499 0.515735,-0.552573 1.289337,-0.552573 0.589411,0 1.105146,0.40522 1.399852,1.289337 2.910218,1.952425 1.547204,0.663088 3.610143,0.663088 1.473528,0 2.689189,-0.478897 1.252499,-0.478897 1.989263,-1.289337 0.736764,-0.81044 0.736764,-1.878748 0,-1.326175 -0.773602,-2.173454 -0.736764,-0.884117 -2.173454,-1.43669 -1.399852,-0.589411 -3.389115,-0.994631 -1.84191,-0.331544 -3.315438,-0.920955 -1.436689,-0.589411 -2.468159,-1.473528 -1.031469,-0.920955 -1.584042,-2.173454 -0.552573,-1.252499 -0.552573,-2.910218 0,-2.24713 1.178822,-3.868011 1.178822,-1.62088 3.204923,-2.504997 2.026101,-0.884117 4.567937,-0.884117 2.320807,0 4.346908,0.736764 2.026101,0.699926 3.278599,1.915586 0.884117,0.773603 0.884117,1.657719 0,0.663088 -0.552573,1.252499 -0.515735,0.552573 -1.21566,0.552573 -0.515735,0 -0.884117,-0.294705 -0.589411,-0.62625 -1.584043,-1.105146 -0.994631,-0.515735 -2.136615,-0.847279 -1.105146,-0.331544 -2.136616,-0.331544 -1.657719,0 -2.836541,0.478897 -1.178823,0.442058 -1.805072,1.252499 -0.62625,0.773602 -0.62625,1.84191 0,1.252498 0.699926,2.062939 0.736764,0.81044 2.026101,1.326175 1.289337,0.478896 2.947056,0.884117 2.026101,0.442058 3.610144,0.994631 1.620881,0.552573 2.726027,1.43669 1.105146,0.847278 1.694557,2.136615 0.589411,1.289337 0.589411,3.204924 0,2.210292 -1.252499,3.868011 -1.252499,1.657719 -3.315438,2.578674 -2.026101,0.920955 -4.531098,0.920955 z"
           id="text2152"
           transform="matrix(0.67008221,0,0,0.67008221,188.49175,-298.94353)"
           aria-label="DSS" /><path
           style="font-weight:500;font-size:23.5085px;line-height:1.25;font-family:Quicksand;-inkscape-font-specification:'Quicksand Medium';fill:#2d2d2d;stroke-width:0.587719"
           d="m 177.91044,-261.92684 q 1.71612,0 3.00909,0.65824 1.31648,0.63473 2.18629,1.78665 0.86982,1.15191 1.29297,2.65646 0.44666,1.48103 0.44666,3.12663 0,2.25681 -0.77578,4.13749 -0.77578,1.85718 -2.30383,2.98558 -1.52805,1.1049 -3.8554,1.1049 h -5.87712 q -0.39965,0 -0.68175,-0.2821 -0.25859,-0.2821 -0.25859,-0.68174 v -14.55177 q 0,-0.39964 0.25859,-0.65823 0.2821,-0.28211 0.68175,-0.28211 z m -0.23508,14.62229 q 1.81015,0 2.93856,-0.86981 1.15192,-0.86982 1.6691,-2.32735 0.5407,-1.45752 0.5407,-3.19715 0,-1.26946 -0.30561,-2.42138 -0.2821,-1.17542 -0.91683,-2.06874 -0.61122,-0.89333 -1.59858,-1.41051 -0.96385,-0.51719 -2.32734,-0.51719 h -4.81924 l 0.18806,-0.18807 v 13.23529 l -0.14105,-0.23509 z m 15.09246,2.06875 q -1.73962,0 -3.0561,-0.51719 -1.31648,-0.51719 -2.53892,-1.64559 -0.16456,-0.16456 -0.2821,-0.35263 -0.094,-0.21158 -0.094,-0.44666 0,-0.37614 0.25859,-0.65824 0.2821,-0.30561 0.68175,-0.30561 0.32912,0 0.58771,0.25859 0.91683,0.89333 1.97471,1.3635 1.08139,0.47017 2.42138,0.47017 1.03437,0 1.85717,-0.32912 0.84631,-0.32912 1.33998,-0.91683 0.49368,-0.58772 0.49368,-1.3635 -0.0235,-0.94034 -0.5642,-1.55156 -0.51719,-0.61122 -1.45753,-1.01086 -0.91683,-0.42316 -2.13927,-0.70526 -1.08139,-0.25859 -1.99822,-0.63473 -0.89333,-0.37613 -1.55157,-0.91683 -0.65823,-0.5642 -1.03437,-1.33998 -0.35263,-0.79929 -0.35263,-1.85718 0,-1.33998 0.70526,-2.35085 0.70525,-1.01086 1.9512,-1.55156 1.24595,-0.5642 2.86804,-0.5642 1.43402,0 2.70348,0.47017 1.29297,0.47017 2.06875,1.29297 0.47017,0.44666 0.47017,0.86981 0,0.35263 -0.30561,0.65824 -0.28211,0.2821 -0.65824,0.2821 -0.2586,0 -0.47017,-0.18807 -0.39965,-0.44666 -1.01087,-0.79929 -0.61122,-0.35262 -1.33998,-0.5642 -0.72877,-0.21158 -1.45753,-0.21158 -1.08139,0 -1.90419,0.32912 -0.8228,0.30561 -1.29297,0.89333 -0.44666,0.5642 -0.44666,1.36349 0,0.89332 0.51719,1.48103 0.51719,0.56421 1.387,0.94034 0.86982,0.35263 1.9277,0.63473 1.15191,0.28211 2.11576,0.65824 0.98736,0.35263 1.69262,0.89332 0.70525,0.5407 1.08139,1.38701 0.39964,0.82279 0.39964,2.04524 0,1.29296 -0.72876,2.30383 -0.72877,1.01086 -1.99823,1.59858 -1.24595,0.5642 -2.82102,0.58771 z m 13.49387,0 q -1.73963,0 -3.05611,-0.51719 -1.31647,-0.51719 -2.53891,-1.64559 -0.16456,-0.16456 -0.28211,-0.35263 -0.094,-0.21158 -0.094,-0.44666 0,-0.37614 0.25859,-0.65824 0.28211,-0.30561 0.68175,-0.30561 0.32912,0 0.58771,0.25859 0.91683,0.89333 1.97472,1.3635 1.08139,0.47017 2.42137,0.47017 1.03438,0 1.85717,-0.32912 0.84631,-0.32912 1.33999,-0.91683 0.49368,-0.58772 0.49368,-1.3635 -0.0235,-0.94034 -0.56421,-1.55156 -0.51718,-0.61122 -1.45752,-1.01086 -0.91684,-0.42316 -2.13928,-0.70526 -1.08139,-0.25859 -1.99822,-0.63473 -0.89332,-0.37613 -1.55156,-0.91683 -0.65824,-0.5642 -1.03438,-1.33998 -0.35262,-0.79929 -0.35262,-1.85718 0,-1.33998 0.70525,-2.35085 0.70526,-1.01086 1.95121,-1.55156 1.24595,-0.5642 2.86803,-0.5642 1.43402,0 2.70348,0.47017 1.29297,0.47017 2.06875,1.29297 0.47017,0.44666 0.47017,0.86981 0,0.35263 -0.30561,0.65824 -0.2821,0.2821 -0.65824,0.2821 -0.25859,0 -0.47017,-0.18807 -0.39964,-0.44666 -1.01086,-0.79929 -0.61123,-0.35262 -1.33999,-0.5642 -0.72876,-0.21158 -1.45753,-0.21158 -1.08139,0 -1.90418,0.32912 -0.8228,0.30561 -1.29297,0.89333 -0.44666,0.5642 -0.44666,1.36349 0,0.89332 0.51718,1.48103 0.51719,0.56421 1.38701,0.94034 0.86981,0.35263 1.92769,0.63473 1.15192,0.28211 2.11577,0.65824 0.98735,0.35263 1.69261,0.89332 0.70525,0.5407 1.08139,1.38701 0.39964,0.82279 0.39964,2.04524 0,1.29296 -0.72876,2.30383 -0.72876,1.01086 -1.99822,1.59858 -1.24595,0.5642 -2.82102,0.58771 z"
           id="text2156"
           aria-label="DSS" /></g></g></g><style
     type="text/css"
     id="style1289">
	.st0{fill:#00C7FD;}
</style><style
     type="text/css"
     id="style1">
	.st0{fill:#2DBCAF;}
	.st1{fill:#5DC9E1;}
	.st2{fill:#FDDD00;}
	.st3{fill:#CE3262;}
	.st4{fill:#00ACD7;}
	.st5{fill:#FFFFFF;}
</style></svg>
